<?xml version="1.0" encoding="UTF-8" standalone="no"?>
<svg
   xmlns:dc="http://purl.org/dc/elements/1.1/"
   xmlns:cc="http://creativecommons.org/ns#"
   xmlns:rdf="http://www.w3.org/1999/02/22-rdf-syntax-ns#"
   xmlns:svg="http://www.w3.org/2000/svg"
   xmlns="http://www.w3.org/2000/svg"
   xmlns:sodipodi="http://sodipodi.sourceforge.net/DTD/sodipodi-0.dtd"
   xmlns:inkscape="http://www.inkscape.org/namespaces/inkscape"
   version="1.1"
   viewBox="0 0 3401.5749 2267.7166"
   width="1200mm"
   height="800mm"
   id="svg2857"
   sodipodi:docname="skyline-sydney.svg"
   inkscape:version="0.92.3 (2405546, 2018-03-11)">
  <sodipodi:namedview
     pagecolor="#ffffff"
     bordercolor="#666666"
     borderopacity="1"
     objecttolerance="10"
     gridtolerance="10"
     guidetolerance="10"
     inkscape:pageopacity="0"
     inkscape:pageshadow="2"
     inkscape:window-width="2493"
     inkscape:window-height="1385"
     id="namedview2859"
     showgrid="false"
     inkscape:zoom="0.5"
     inkscape:cx="2121.0391"
     inkscape:cy="1979.4766"
     inkscape:window-x="1987"
     inkscape:window-y="27"
     inkscape:window-maximized="1"
     inkscape:current-layer="g12"
     inkscape:measure-start="228.5,1795.44"
     inkscape:measure-end="232.062,1795.37"
     units="mm" />
  <style
     id="style2433">.style0{fill:	none;}.style1{fill:	#9BAABF;}.style2{stroke:	#9BAABF;stroke-linecap:	round;}</style>
  <metadata
     id="metadata2435">
    <dc:date>2013-08-10 23:06Z</dc:date>
    <!-- Produced by OmniGraffle Professional 5.4.4 -->
    <rdf:RDF>
      <cc:Work
         rdf:about="">
        <dc:format>image/svg+xml</dc:format>
        <dc:type
           rdf:resource="http://purl.org/dc/dcmitype/StillImage" />
        <dc:title></dc:title>
      </cc:Work>
    </rdf:RDF>
  </metadata>
  <defs
     id="defs2437" />
  <g
     class="style0"
     id="g2855"
     style="fill:none;stroke:#ff0000;stroke-width:0.075;stroke-miterlimit:4;stroke-dasharray:none"
     transform="translate(0,2037.7166)">
    <title
       id="title2439">Canvas 1</title>
    <g
       id="g2853"
       style="fill:none;stroke:#ff0000;stroke-width:0.075;stroke-miterlimit:4;stroke-dasharray:none">
      <title
         id="title2441">Layer 1</title>
      <path
         style="fill:none;stroke:#ff0000;stroke-width:0.075;stroke-miterlimit:4;stroke-dasharray:none"
         d="m 207.30982,123.31088 -0.11333,4.13645 h -0.70861 v 0.5665 l -0.76507,-0.76487 v 0.45319 h -0.85017 v 0.39676 l -0.70861,-0.70843 v 0.68021 h -0.56664 c -0.1417,0 0,1.2467 0,1.2467 h -0.51019 v 2.493 h -0.39685 v 12.04082 h -0.25489 v -1.4733 h -1.70033 v -0.28304 h -1.84231 v -1.13341 l -1.27525,-0.33989 -1.81367,0.28345 v -8.75474 l -1.30348,0.76488 -0.16978,-6.71453 -0.3404,6.96976 -2.40854,1.5866 h -1.36035 v 0.3399 h -1.24702 v 0.53827 l 0.14155,-0.28345 h 1.84231 v 0.42497 c -1.84203,0.14166 -3.28734,1.19027 -3.28734,1.19027 -0.51011,0.31164 -1.55878,1.52974 -1.55878,1.52974 h -0.7082 l 0.42508,7.22458 h -0.56705 v -0.3399 h -0.45331 v -12.86255 h -0.39686 v -1.21849 h -0.51018 v -2.54985 l -0.19802,-3.08813 -0.22707,3.14499 h -0.19801 v 0.36812 h -0.39686 v 0.59513 l -1.21879,0.28304 v 1.30356 l -0.56664,0.14152 v 0.59513 l -3.28735,0.6798 v 1.2467 c -1.30359,0.085 -1.16192,0.36812 -1.16192,0.36812 v 14.87413 h 0.19842 v 0.87859 l -1.24702,0.0847 v 0.87859 l -2.86226,0.19796 v 1.07696 h -0.85017 v -11.72956 l -0.56664,-0.5665 h -0.59528 v -7.33788 l -0.0565,-4.95818 -0.22666,4.90133 -1.81366,-0.3399 -0.14197,-4.87311 -0.16979,6.82783 -1.38858,3.23006 h -0.68038 v 0.28346 h -1.19015 v 0.45319 h -0.99173 v 5.41138 l -1.95563,4.24976 v 8.04589 h -0.90663 v -8.69747 l -5.63942,-0.59513 -1.07683,0.14152 -0.0286,-6.11939 0.0286,-0.28346 0.93486,-0.19838 0.14197,-2.20995 -0.45373,-0.16974 v -0.25524 h 0.39686 v -0.16974 h -0.53841 v -1.98335 h -0.59487 l -0.2553,-2.91797 h -0.11333 l -0.19843,2.94619 -0.59487,0.0286 0.0282,1.98294 -0.33998,0.0851 -0.0286,0.42498 -0.33998,0.0282 0.19843,2.15351 0.76506,0.19838 v 0.39634 l 0.0569,11.04935 h -0.59529 v 0.39676 h -0.45331 v 0.28345 h -3.28734 v -3.25828 h -0.59529 v -1.18985 h -0.79329 v -0.93503 h -0.45332 v -0.2266 h -0.45372 v -0.48183 l -1.89835,-0.0565 v 1.38823 l -1.67211,0.25482 v 0.76487 h -0.42509 l -2.74893,0.34031 v 4.39127 h -0.62351 v 0.3399 h -0.25489 v -0.28304 h -0.59528 v 4.22112 h -0.73684 v -2.88975 h -1.58701 v -1.02011 h -0.45331 v -0.79309 h -0.25488 v 0.51005 h -0.82195 l -0.0851,-0.0851 h -1.27525 v 0.59514 h -0.51018 v -1.36001 h -1.30348 v 1.30315 h -1.1337 v 0.90681 h -0.65174 v -1.64346 h -0.28353 v 0.31167 l -0.19801,-0.19837 v -0.3399 h -0.48196 v -0.48183 h -1.38858 v 4.8731 h -0.56664 v -2.60629 h -0.39685 l -0.19843,-2.38011 v 2.40833 h -0.82194 v 1.18985 h -0.62351 v 1.5866 h -0.9635 v 0.28345 h -0.70819 v 0.42498 l -0.1702,0.14152 v 0.70843 h -0.99173 v -0.42498 h -1.41722 V 158.187 h -1.16151 v -0.16974 h -0.87881 l -0.19843,-0.17015 h -0.50977 v 0.25482 h -0.79371 v 0.65198 h -0.76507 l -0.19843,0.19797 h -0.65174 l -0.19843,-0.19797 v -0.19837 l -0.0851,-0.1133 V 158.187 h -0.33998 v -0.16974 h -0.28353 v -0.19837 h -0.7933 v -0.2266 h -1.04859 v 0.2266 h -0.56664 v 0.42497 h -0.73684 v -0.36853 h -0.56706 v -0.2266 h -1.04818 v 0.2266 h -0.3404 v 0.65157 h -0.22666 v 0.59513 h -0.16978 v 0.6798 h -0.31176 v 1.36 h -4.39281 v -2.43655 h -0.16978 v -1.07655 h -0.22666 v -0.28304 h -0.31176 v -0.34031 h -1.87053 v 0.45361 h -1.64347 v 0.31168 h -0.283525 v 0.28304 l -0.141557,0.14193 v 0.90639 h -0.226655 v 0.48183 c 0,0 -14.282855,-7.19633 -28.36731,-6.88468 -14.112793,0.31165 -26.355217,7.33788 -26.355217,7.33788 h -3.457545 l 0.736841,-1.72812 c -0.651796,0.0567 -2.097193,0.50964 -2.097193,0.50964 v -0.73665 c -0.991861,0 -2.437175,0.51005 -2.437175,0.51005 l 1.218795,-3.31473 c -1.445286,0.31165 -2.437178,1.02011 -2.437178,1.02011 l 0.05646,-1.30356 c -7.311449,1.67157 -8.671468,6.82824 -8.671468,6.82824 l -1.020368,-0.28345 c -2.210437,-1.7849 -7.594643,-0.93503 -7.594643,-0.93503 l 1.076823,3.00311 -9.125195,0.51006 v 24.45019 H 294.45207 V 157.8754 c 0,0 -2.55051,-2.26643 -2.55051,-2.57808 0,-0.28331 -3.48577,0 -3.48577,0 l -1.98387,2.01158 h -2.3803 l -2.23875,-2.23817 v -3.22965 h -1.81366 v 6.54437 h -0.68039 v -2.35147 h -1.84189 v 2.46477 h -0.67997 l -0.62351,-0.59472 v -0.82173 h 0.28311 v -0.99147 h -0.33999 v 0.28304 h -0.19843 v -0.25482 h -0.19842 v 0.25482 h -0.22666 v -0.2266 h -0.22665 v 0.2266 h -0.22666 v -0.19837 h -0.22665 v 0.22659 h -0.19843 v -0.22659 h -0.45331 v 1.04832 h 0.22665 v 0.73666 h -0.79372 v -0.65158 h -0.87839 v -0.33989 h -0.53841 v 0.31167 h -0.39686 v 0.51006 h -1.07682 v -9.85951 h -0.70819 v -0.31168 H 269.287 v -0.25523 h -1.72856 c -1.75702,-1.01995 -2.80581,0.31167 -2.80581,0.31167 v 0.82173 h -0.31176 v 8.10275 l -0.79329,-0.82131 v -3.39981 l -0.70861,-0.70842 v -4.67473 h -0.51019 v -0.4532 h -0.50976 v -0.45361 h -0.34041 v -0.2266 h -1.44503 v 0.25523 h -0.59529 l -0.62351,0.62336 h -0.31176 l -0.2831,0.28304 v 0.3399 h -0.14198 v 3.82477 h -1.84189 v -1.21807 h -0.67997 l 0.0565,-1.16162 -0.22666,1.18984 h -1.02037 l -0.0564,-1.10477 -0.0282,1.133 -1.10547,0.0568 v -0.25477 h -0.31176 v -0.19837 h 0.28353 v -0.28346 h -0.33998 v -0.17016 h 0.31176 v -0.25481 h -0.31176 v -0.17016 h 0.31176 v -0.25482 h -0.34053 v -0.19838 h 0.28353 v -0.28304 h -0.28353 v -0.14193 h 0.28353 v -0.3399 h -0.33998 v -0.17015 h 0.28353 v -0.28304 h -0.28353 v -0.11331 h 0.33998 v -0.39675 h -0.33998 v -1.30315 h -0.62352 v -5.04326 h -2.83403 v -0.33989 h -0.42509 v 0.33989 h -2.69205 v 0.42498 h -2.77716 l 0.36821,-0.53828 -0.56664,0.5665 h -0.28353 v -0.3399 h -0.73684 v 0.48183 h -1.04818 v 1.78498 h -0.48196 v 4.4195 l -1.44545,-0.42498 v -0.59471 h -1.53014 v -2.49341 l -0.0564,2.52163 h -1.2188 l -0.14155,-3.23006 v 3.25828 h -1.27525 v 1.16162 h -0.53842 v -2.63493 l -1.47368,-1.50152 v -0.3399 h -2.86226 v 1.07655 l -0.31176,0.28346 v 11.84245 h -0.36863 v 1.9265 h -1.19015 v -5.80772 h -0.42508 v -0.56691 l -0.82152,-0.82132 h -1.41723 v -17.25424 h -0.25488 v -0.70802 h 0.19843 v -0.51005 l -2.2674,-0.87859 v -0.59471 h -0.22665 v -0.53828 h -0.33999 v 0.53828 h -0.22666 v 0.48141 l -5.66764,0.82173 v 0.70843 h 0.19801 v 0.70802 h -0.19801 v 10.90784 c -2.6922,-0.31165 -3.79753,0.31167 -3.79753,0.31167 v 15.10074 h -0.76512 v -28.27497 h -0.65216 v -2.43655 h -0.53841 v -1.64305 h -0.99173 v -0.39675 h -0.85016 v -0.25482 h -0.31176 v 0.25482 h -0.25488 v -0.19838 h -0.2553 v 0.2266 h -0.19843 v -0.19838 h -0.33999 v 0.19838 h -0.28311 z M 70.347623,150.96249 v 0.0353 l -0.708611,0.1631 0.113327,0.42498 0.460785,-0.10625 0.02117,0.10625 0.113327,-0.0262 v 1.13133 h 0.0851 v -1.15084 l 0.453314,-0.10458 v 1.25542 h 0.0851 v -1.72854 h -0.0851 v 0.0286 l -0.453314,0.10458 v -0.13322 z m 2.000469,2.29587 c 0.0052,-2e-5 0.01052,2e-5 0.01577,0 l -0.01494,0.0166 z m 0.09548,4.2e-4 c 0.147621,-2.1e-4 0.295179,6.4e-4 0.442936,0.002 l 0.06974,1.43553 -0.05812,0.0627 0.05646,0.0569 0.0071,-0.007 0.0025,0.049 c -0.179636,-0.006 -0.35838,-0.0138 -0.539242,-0.0166 l -0.07223,-1.48368 z m -0.20922,0.001 0.0066,0.13363 -0.2059,0.22702 -0.956025,1.0533 -0.06268,-1.38449 c 0.02277,-8.5e-4 0.04531,-0.003 0.06808,-0.004 0.382412,-0.0152 0.76594,-0.0229 1.149886,-0.0257 z m 0.765483,0.001 c 0.41484,0.005 0.830155,0.0226 1.245363,0.0411 l -1.181435,1.27741 z m -2.096776,0.034 0.07057,1.55756 c -0.09598,0.003 -0.191158,0.007 -0.286849,0.0108 -0.03601,0.001 -0.07197,0.003 -0.107933,0.004 l 0.02366,-0.0237 -0.121215,-0.1631 -0.06144,-1.36001 c 0.161062,-0.009 0.321721,-0.0187 0.483202,-0.0257 z m 3.484941,0.0137 c 0.101687,0.005 0.203397,0.009 0.305115,0.0137 l -0.290171,0.2901 z m 0.359496,0.0162 c 0.06006,0.003 0.12014,0.005 0.180162,0.008 l 0.07265,1.4982 -0.09008,0.0975 0.02823,0.0282 0.06476,-0.0701 0.005,0.0984 c -0.179987,-0.0169 -0.359413,-0.0344 -0.540902,-0.0486 l -0.06144,-1.2633 z m -4.439723,0.002 0.05812,1.19856 -0.851413,-1.14876 c 0.26373,-0.019 0.528279,-0.035 0.793296,-0.0498 z m 4.733629,0.0154 c 0.41506,0.0264 0.82974,0.0579 1.243702,0.0959 v 0.004 l -1.066861,1.15416 -0.110008,0.11911 z m -0.737256,0.0141 0.01577,0.34654 -1.075994,1.16329 c -0.05512,-0.002 -0.110813,-0.003 -0.166049,-0.005 l -0.0083,-0.16891 z m -4.836163,0.0241 0.901644,1.216 0.01371,0.27889 c -0.203941,0.009 -0.407282,0.0198 -0.609813,0.0328 l -0.83979,-1.15166 -0.01494,-0.33285 c 0.182689,-0.0153 0.365821,-0.0298 0.549205,-0.0432 z m -0.663363,0.0519 0.0071,0.15687 -0.108346,-0.14899 c 0.03364,-0.003 0.06763,-0.005 0.101289,-0.008 z m -0.192616,0.0154 0.2059,0.27765 0.05646,1.24961 c -0.108691,0.01 -0.215564,0.0236 -0.323792,0.0344 l 0.01163,-0.0237 -0.05521,-0.0747 -0.06559,-1.44715 c 0.05694,-0.005 0.113606,-0.0111 0.170616,-0.0162 z m 7.786844,0.002 c 0.129477,0.0122 0.25856,0.0264 0.387724,0.0403 l -0.368629,0.37641 z m -4.154118,0.0237 0.06642,1.36457 c -0.368801,-0.004 -0.739823,-0.003 -1.113357,0.006 -0.03717,8.5e-4 -0.07371,0.003 -0.110837,0.004 l -0.0054,-0.11662 z m -3.917501,0.002 0.0577,1.2712 -0.879641,-1.18612 c 0.27304,-0.0304 0.54702,-0.0588 0.821938,-0.0851 z m 8.510402,0.0203 c 0.05337,0.006 0.106842,0.0109 0.160237,0.0166 l 0.0714,1.57167 -0.118724,0.12824 0.01037,0.0108 c -0.06491,-0.01 -0.128295,-0.0217 -0.193448,-0.0311 -0.09621,-0.014 -0.194688,-0.0246 -0.291414,-0.0378 l -0.05563,-1.23094 z m -0.550036,0.003 0.022,0.48515 -0.957685,1.03546 c -0.07654,-0.008 -0.153566,-0.0149 -0.230394,-0.0224 l -0.0108,-0.22576 z m 0.798693,0.0228 c 0.417637,0.0456 0.83369,0.0963 1.248685,0.15231 l 0.0021,0.039 -0.831902,0.89975 -0.347872,0.376 z m -9.646587,0.0457 0.949797,1.28073 0.0079,0.17763 c -0.200093,0.021 -0.401419,0.0396 -0.599849,0.0639 -0.01088,0.001 -0.0215,0.003 -0.03238,0.005 l -0.84228,-1.13589 -0.01577,-0.32662 c 0.177434,-0.0217 0.354291,-0.0443 0.532601,-0.0643 z m -0.618115,0.0751 0.0087,0.19091 -0.13035,-0.17555 c 0.04055,-0.005 0.08104,-0.0103 0.121631,-0.0154 z m -0.192617,0.0245 0.206315,0.27806 0.05729,1.26912 c -0.114815,0.017 -0.229532,0.0338 -0.343718,0.0519 l -0.107933,-0.14567 -0.06932,-1.42101 c 0.08551,-0.0113 0.171642,-0.0214 0.257375,-0.0324 z m 11.818917,0.0216 c 0.119393,0.0164 0.239131,0.0314 0.35825,0.0486 l -0.33957,0.36936 z m -12.162221,0.0216 0.0577,1.27908 -0.863038,-1.1637 c 0.267646,-0.0398 0.535332,-0.0792 0.805337,-0.11538 z m 12.615949,0.0415 c 0.04264,0.006 0.08485,0.0136 0.127442,0.0199 l 0.07929,1.61939 -0.169368,0.1851 c -0.02783,-0.006 -0.05472,-0.0126 -0.08261,-0.0182 -0.107795,-0.0221 -0.218529,-0.041 -0.327117,-0.0623 l -0.0577,-1.27617 z m -4.579202,0.0141 0.05272,1.16578 c -0.297397,-0.0223 -0.595451,-0.0437 -0.896662,-0.0581 -0.05192,-0.002 -0.104885,-0.003 -0.156915,-0.005 z m 4.017128,0.004 0.022,0.45112 -0.983421,1.0695 c -0.06908,-0.0112 -0.138204,-0.0223 -0.20756,-0.0332 l -0.01037,-0.21166 z m 0.805335,0.0199 c 0.417088,0.0629 0.832127,0.13008 1.244948,0.20211 l -0.632644,0.691 -0.540074,0.58974 z m -13.734703,0.0465 0.93859,1.26497 0.0091,0.19755 c -0.166521,0.0272 -0.332616,0.055 -0.497731,0.0842 -0.03828,0.007 -0.0772,0.0126 -0.115404,0.0195 l -0.857639,-1.17698 -0.01494,-0.30919 c 0.178102,-0.0284 0.358756,-0.0532 0.537995,-0.0801 z m 3.529361,0.0544 0.759258,1.02343 c -0.237477,0.0158 -0.475272,0.0313 -0.710687,0.0519 z m -4.179854,0.0444 0.0058,0.12409 -0.08095,-0.11123 c 0.02518,-0.004 0.04993,-0.009 0.07514,-0.0129 z m -0.136575,0.0231 0.147368,0.19837 0.06891,1.42185 c -0.136696,0.0281 -0.273714,0.0557 -0.409309,0.0851 l 0.05147,-0.0257 -0.06476,-0.0872 -0.0714,-1.5451 c 0.09266,-0.0156 0.184724,-0.0321 0.277716,-0.0473 z m 15.829402,0.0556 0.02117,0.47063 -1.093843,1.18777 c -0.04827,-0.0106 -0.09644,-0.0211 -0.144878,-0.0315 l -0.01371,-0.28304 0.78126,-0.85286 z m 0.113744,0.01 c 0.0951,0.0169 0.190348,0.0337 0.285189,0.051 l -0.269414,0.29259 z m -16.333361,0.001 0.0631,1.36291 -0.90123,-1.21475 c 0.277533,-0.0514 0.55736,-0.10023 0.83813,-0.14816 z m 12.079197,0.0162 0.04982,1.09895 c -0.317461,-0.0424 -0.637033,-0.0809 -0.959761,-0.11495 z m -9.383815,0.0299 0.766314,1.03338 c -0.238731,0.0299 -0.475335,0.0635 -0.711516,0.0979 z m 13.994153,0.0166 c 0.06206,0.0114 0.12486,0.0216 0.186805,0.0332 l 0.07763,1.71235 -0.206731,0.22411 c -0.107838,-0.0284 -0.216625,-0.0561 -0.325455,-0.0838 l -0.06891,-1.52062 z m 0.274396,0.049 c 0.367838,0.0696 0.73276,0.14339 1.09592,0.21913 l 0.01246,0.26478 -1.030332,1.11722 z m -17.869726,0.0498 0.974291,1.31394 0.0087,0.19091 c -0.265414,0.0584 -0.530643,0.1171 -0.791636,0.18011 -0.234493,0.0566 -0.464566,0.11717 -0.695327,0.17721 l -0.08012,-1.73393 1.086787,1.46542 0.05646,-0.0286 -1.085956,-1.46501 c 0.174883,-0.0341 0.350511,-0.0672 0.526787,-0.10002 z m -0.698232,0.13281 0.08136,1.758 c -0.06843,0.018 -0.138645,0.0344 -0.206731,0.0527 -0.02284,0.006 -0.04486,0.0129 -0.06766,0.0191 l -0.121629,-0.16642 -0.07846,-1.5837 c 0.130881,-0.0268 0.261403,-0.0536 0.39312,-0.0797 z m 2.262825,0.001 0.808242,1.08983 c -0.02747,0.005 -0.0556,0.009 -0.08302,0.0141 -0.223884,0.0412 -0.443912,0.0876 -0.665023,0.13239 z m 13.47525,0.0133 0.05521,1.14212 c -0.313387,-0.0603 -0.629696,-0.11685 -0.949383,-0.16974 z m 4.041205,0.0452 c 0.03336,0.007 0.06673,0.0141 0.100045,0.0212 l -0.09423,0.1021 z m 0.168539,0.0365 c 0.159685,0.0341 0.317089,0.0703 0.475729,0.10542 l -0.606491,0.65696 -0.02781,-0.59056 z m -20.427699,0.002 0.066,1.42973 -0.914928,-1.25086 c 0.280177,-0.0617 0.56458,-0.12026 0.848925,-0.17887 z m 20.942034,0.1216 0.08635,1.82814 -0.239941,0.26022 c -0.06774,-0.0215 -0.133102,-0.0443 -0.201334,-0.0656 -0.07476,-0.0233 -0.152555,-0.045 -0.227901,-0.0681 l -0.05936,-1.25915 z m 0.114989,0.0162 c 0.331823,0.0744 0.660847,0.15049 0.987573,0.22909 l 0.02077,0.45984 -0.928211,1.00516 z m -2.728177,0.0154 0.06227,1.37495 c -0.358565,-0.0902 -0.722544,-0.17571 -1.091353,-0.25731 z m -19.241283,0.0403 0.982176,1.31518 0.01288,0.28097 c -0.04733,0.0131 -0.09399,0.0266 -0.141143,0.0398 -0.08527,0.0239 -0.170593,0.0475 -0.255299,0.0718 l -1.156112,-1.58038 c 0.185549,-0.0427 0.369978,-0.086 0.557508,-0.12741 z m 21.072799,0.095 0.02781,0.59015 -0.835225,0.90432 c -0.06871,-0.0191 -0.138005,-0.038 -0.207145,-0.0569 l -0.01577,-0.31997 z m -11.82473,0.0469 0.08635,0.11662 c -0.0088,4.2e-4 -0.01773,4.2e-4 -0.02657,8.5e-4 -0.01811,6.3e-4 -0.03628,0.001 -0.05438,0.002 z m -9.870336,4.2e-4 1.177699,1.57789 c -0.09232,0.0266 -0.186909,0.0514 -0.278547,0.0784 -0.28606,0.0844 -0.567264,0.172 -0.846431,0.26062 l -0.08718,-1.90906 c 0.01143,-0.003 0.023,-0.005 0.03446,-0.008 z m -0.147369,0.0336 0.09506,1.9157 c -0.0041,0.001 -0.0084,0.002 -0.01246,0.004 -0.1028,0.0329 -0.202045,0.0678 -0.303867,0.10127 l -0.0013,-0.027 0.01454,0.0195 0.02823,-0.0282 -0.04608,-0.0631 -0.08468,-1.85013 c 0.102562,-0.0245 0.207286,-0.0477 0.310509,-0.0718 z m 23.841244,0.0253 c 0.0831,0.0202 0.166743,0.0398 0.249488,0.0602 l -0.235375,0.25482 z m -24.265082,0.0743 0.07597,1.6555 -1.037388,-1.41811 c 0.316552,-0.0809 0.638081,-0.15965 0.961422,-0.23739 z m 24.582235,0.002 c 0.175375,0.0434 0.349341,0.0875 0.523051,0.13198 l -0.791636,0.86821 -0.03072,-0.67606 z m -16.113762,0.12492 8.5e-4,0.001 c -2.13e-4,3e-5 -6.38e-4,-3e-5 -8.5e-4,0 z m 16.701987,0.0241 c 0.0068,0.002 0.01352,0.004 0.02034,0.005 l 0.110837,1.85927 -0.386478,0.42456 c -0.180448,-0.0675 -0.360518,-0.13491 -0.545468,-0.20128 l -0.05231,-1.15167 z m 0.135744,0.0353 c 0.328369,0.0851 0.653795,0.17149 0.975537,0.2598 l 0.02781,0.46274 -0.04649,0.0515 -0.854319,0.93794 z m -26.329063,0.0672 1.102148,1.47746 0.01037,0.22742 c -0.08204,0.0272 -0.164366,0.0542 -0.245752,0.0818 l -1.235401,-1.68911 c 0.123204,-0.0323 0.244321,-0.0656 0.368627,-0.0975 z m 18.051547,0.002 0.0046,0.10085 c -0.02863,-0.004 -0.05684,-0.009 -0.08552,-0.0133 z m -10.625444,0.0921 0.03363,0.0452 c -0.0065,0.001 -0.01297,0.002 -0.01951,0.003 -0.0039,6.4e-4 -0.0077,0.002 -0.01163,0.002 z m -7.859903,0.0207 1.238306,1.69284 c -0.420379,0.14279 -0.832855,0.2886 -1.234987,0.43826 l -0.09631,-2.1062 c 0.03098,-0.008 0.06193,-0.0167 0.09299,-0.0249 z m -0.205072,0.0544 0.09714,2.11907 c -0.07608,0.0285 -0.150845,0.0576 -0.22624,0.0863 l -0.02906,-0.0386 -0.09631,-2.09956 c 0.08393,-0.0227 0.169996,-0.0447 0.254468,-0.0672 z m 25.836731,0.0208 0.03072,0.67731 -0.73601,0.8072 c -0.06684,-0.0223 -0.13564,-0.0439 -0.202995,-0.066 l -0.01951,-0.41377 z m -11.332809,0.0224 c 0.03423,2e-5 0.0687,0.002 0.102949,0.002 l 0.306775,6.3186 h 0.113327 l -0.306358,-6.31569 c 0.43047,0.005 0.8624,0.0252 1.295178,0.0589 l 0.285187,6.28332 -5.383705,0.1353 -0.282698,-6.25262 c 0.45803,-0.0426 0.922651,-0.0786 1.396467,-0.10583 l 0.303455,6.25345 h 0.0851 l -0.283944,-6.25884 c 0.152063,-0.008 0.304541,-0.0161 0.458294,-0.0228 0.0085,-4.2e-4 0.01681,-8.5e-4 0.02532,-0.001 l 0.282282,6.22605 h 0.113329 l -0.282698,-6.23186 c 0.0092,-4.3e-4 0.01817,-8.5e-4 0.0274,-0.001 0.395509,-0.0414 0.794667,-0.0661 1.195549,-0.0784 l 0.306358,6.31154 h 0.113744 l -0.306774,-6.31569 c 0.144904,-0.003 0.290058,-0.005 0.435462,-0.005 z m 9.454386,0.002 0.0523,1.10643 c -0.194304,-0.0589 -0.387258,-0.11836 -0.585319,-0.17514 -0.08578,-0.0246 -0.17464,-0.0472 -0.261113,-0.0714 z m 4.100568,0.0116 c 0.08124,0.0224 0.162061,0.045 0.242846,0.0676 l -0.224166,0.24652 z m -28.425011,0.0411 0.08717,1.90865 -1.193473,-1.59739 c 0.363192,-0.10518 0.731642,-0.20919 1.106299,-0.31126 z m 16.47533,0.0174 c 0.180438,0.0149 0.360811,0.0333 0.541319,0.0527 l 0.301376,6.20738 -0.537995,0.0137 z m 12.258115,0.0274 c 0.157028,0.0441 0.315502,0.0876 0.470747,0.13239 l 4.25e-4,0.004 -0.01037,-0.005 -0.709442,0.77898 -0.03611,-0.60219 z m -7.636154,0.027 0.0066,0.13862 c -0.03727,-0.008 -0.07387,-0.0163 -0.11125,-0.0241 z m -3.9669,0.0108 c 0.413745,0.0466 0.827163,0.10096 1.239552,0.16932 l 0.270659,5.9924 -1.209662,0.0303 z m -6.243007,0.10499 0.282696,6.24474 -1.877592,0.0473 -0.294737,-6.06545 c 0.46225,-0.0678 0.933802,-0.12658 1.412243,-0.17845 l 0.278547,6.14512 h 0.113327 l -0.277716,-6.1584 c 0.120139,-0.0127 0.242026,-0.0232 0.363232,-0.0349 z m 18.432628,0.0237 c 0.30611,0.0888 0.610853,0.17825 0.90953,0.26893 l 0.03819,0.61049 -0.841035,0.91095 z m -0.111253,0.0394 0.111668,1.8659 -0.508938,0.55156 c -0.0752,-0.0321 -0.153305,-0.0642 -0.229563,-0.0963 l -0.09216,-1.53265 0.430897,-0.47271 z m -22.801779,0.008 0.0017,0.002 c -6.38e-4,1.2e-4 -0.0011,6.3e-4 -0.0017,8.5e-4 z m 12.077538,0.0133 c 0.200884,0.0342 0.401371,0.0723 0.601509,0.11123 l 0.264848,5.84341 -0.596945,0.0149 z m -19.636481,0.0531 1.24495,1.71153 0.0058,0.12491 c -0.08115,0.0312 -0.16459,0.062 -0.24492,0.0934 l -1.350391,-1.82772 c 0.115075,-0.034 0.228241,-0.0683 0.34455,-0.1021 z m 20.333885,0.076 c 0.42085,0.0833 0.838812,0.17762 1.254495,0.27931 l 0.266923,5.51222 -1.239966,0.0311 z m -10.276743,0.0278 0.27315,6.05382 -0.423838,0.0108 -0.291,-5.99489 c 0.146741,-0.0237 0.293357,-0.0476 0.441688,-0.0697 z m -10.481396,0.022 1.366995,1.82856 c -0.461816,0.1814 -0.906348,0.36588 -1.339596,0.55155 l -0.104196,-2.35728 c 0.02553,-0.008 0.05121,-0.0152 0.0768,-0.0228 z m 29.918202,0.0183 0.03612,0.60384 -0.900812,0.9894 -0.03695,-0.61713 0.403915,-0.43701 z m -30.106667,0.0373 0.105026,2.37181 c -2.13e-4,1.2e-4 -6.38e-4,1.4e-4 -8.5e-4,4.2e-4 -0.01365,0.006 -0.0279,0.0115 -0.04151,0.0174 l -0.250732,-0.33534 -0.09631,-1.96966 c 0.09333,-0.0284 0.190159,-0.0564 0.284358,-0.0847 z m 10.135186,0.006 0.270243,5.98327 -1.394391,0.0349 -0.279793,-5.75958 c 0.46016,-0.094 0.927872,-0.18042 1.403941,-0.25856 z m 14.804883,0.002 0.0091,0.1988 c -0.05139,-0.0139 -0.101976,-0.0282 -0.153596,-0.0419 z m 7.169973,0.003 c 0.121521,0.0371 0.239607,0.0748 0.35991,0.11206 l -0.333342,0.34944 z m -32.480745,0.10085 0.08136,1.80781 -1.109618,-1.48493 c 0.336571,-0.10812 0.678846,-0.21615 1.028255,-0.32288 z m 32.905,0.0311 c 0.15068,0.0468 0.303257,0.0934 0.451652,0.14069 l 0.0083,0.13654 -0.809903,0.87692 -0.04234,-0.73748 z m -26.466884,0.005 0.07638,0.10209 c -0.01622,0.004 -0.03195,0.009 -0.04815,0.0133 -0.0074,0.002 -0.0146,0.004 -0.022,0.006 z m 21.93459,0.0336 0.04483,0.99271 c -0.237424,-0.0844 -0.476534,-0.16819 -0.721066,-0.25025 z m -5.695464,0.0195 c 0.198582,0.0493 0.397073,0.0989 0.59404,0.1519 l 0.260279,5.31675 -0.606491,0.0149 z m -13.687376,0.0855 v 4.3e-4 4.2e-4 4.3e-4 4.2e-4 4.3e-4 4.2e-4 l 0.278545,5.73966 -4.663056,0.11745 -0.209636,-4.5909 c 0.106149,-0.0365 0.212361,-0.073 0.319229,-0.10873 l 0.230806,4.65564 h 0.0851 l -0.213788,-4.68926 c 0.512499,-0.16995 1.033707,-0.33072 1.564178,-0.48183 l 0.236619,5.11187 h 0.113327 l -0.255299,-5.14162 c 0.12727,-0.0359 0.25518,-0.0711 0.383573,-0.10583 l 0.240355,5.19059 h 0.113328 l -0.24077,-5.22088 c 0.487136,-0.13016 0.982516,-0.25145 1.486963,-0.36397 l 0.255716,5.52841 h 0.113327 l -0.256959,-5.55373 c 0.138903,-0.0305 0.278139,-0.0605 0.418442,-0.0896 z m 24.483019,0.034 c 0.309266,0.099 0.613182,0.19861 0.912437,0.29839 l 0.03902,0.62169 -0.840618,1.00185 c -0.03808,-0.66566 -0.07756,-1.33777 -0.110839,-1.92193 z m -10.085784,0.0651 c 0.440463,0.12024 0.876321,0.24847 1.306385,0.38431 l 0.22043,4.8648 -1.269025,0.032 z m -24.478039,0.0693 1.177283,1.57498 0.0046,0.10334 0.01785,0.39966 c -0.01964,0.009 -0.03855,0.0175 -0.05812,0.0262 l -1.474094,-1.99539 c 0.110751,-0.0363 0.220261,-0.0726 0.332511,-0.10874 z m 34.459629,0.0195 0.117895,1.88375 -0.584077,0.69598 c -0.08342,-0.0405 -0.167434,-0.0812 -0.252808,-0.12202 l -0.09133,-1.57996 z m -6.066997,0.0664 0.01203,0.25814 c -0.06419,-0.0209 -0.127965,-0.042 -0.192616,-0.0627 z m -28.802358,0.0473 v 4.3e-4 l 1.491948,1.99622 c -0.419824,0.18665 -0.82844,0.37387 -1.216721,0.55944 -0.09028,0.0431 -0.175094,0.0857 -0.263603,0.12865 l -0.127857,-2.64679 c 0.03842,-0.0127 0.07763,-0.0255 0.116233,-0.0382 z m 32.019131,0.0623 0.08178,1.36665 c -0.111638,-0.0466 -0.219917,-0.0935 -0.333759,-0.13986 -0.207619,-0.0846 -0.422002,-0.16824 -0.636795,-0.25192 z m -32.220049,0.004 0.116649,2.66522 c -0.03042,0.0149 -0.06113,0.0296 -0.09133,0.0444 -0.08022,0.0394 -0.163738,0.0791 -0.24243,0.11828 l -1.617313,-2.19419 c 0.583337,-0.20996 1.196032,-0.42204 1.834421,-0.63372 z m 36.200648,0.002 c 0.109729,0.0368 0.214665,0.0736 0.322964,0.11039 l -0.295982,0.35277 z m -2.090137,0.0174 0.04566,0.7325 -0.843112,0.91303 -0.04317,-0.72254 0.112499,-0.12326 z m 2.476198,0.11495 c 0.195284,0.0666 0.39282,0.13314 0.583245,0.19963 l -0.08302,0.0992 c -0.278336,0.33273 -0.56543,0.67412 -0.805751,0.96034 l -0.04815,-0.83294 z m -10.076651,0.0162 c 0.183872,0.0588 0.365168,0.11985 0.546713,0.18095 l 0.209637,4.63198 -0.537997,0.0141 z m 10.722165,0.20544 c 0.321844,0.11267 0.624015,0.22381 0.929871,0.33533 l 0.03487,0.65987 -0.486523,0.5777 -0.401837,0.47768 -0.111667,-1.97339 c 0,0 0.02419,-0.0529 0.03528,-0.0772 z m -10.077483,0.008 c 0.371853,0.12626 0.739217,0.25629 1.099657,0.39053 l 0.198013,4.17879 -1.073918,0.0274 z m 4.015468,0.0369 0.03113,0.51794 c -0.123991,-0.0478 -0.25232,-0.0945 -0.378591,-0.14194 z m 5.919214,0.1245 0.124537,1.99332 -0.649667,0.77151 -0.07015,0.0834 c -0.0316,-0.0173 -0.07002,-0.0365 -0.10212,-0.054 l -0.105857,-1.83686 z m -38.985695,0.1299 1.622708,2.20083 c -0.438357,0.21881 -0.853867,0.43401 -1.242043,0.64203 -0.09948,0.0533 -0.181271,0.10121 -0.277299,0.15355 l -0.135747,-2.98479 c 0.01056,-0.004 0.0218,-0.008 0.03238,-0.0116 z m 38.02801,0.0266 0.05189,0.82713 -0.705291,0.84123 -0.13948,0.16601 -0.04733,-0.82214 z m -38.172058,0.0262 0.13699,3.00471 v 8.5e-4 c -0.05965,0.0327 -0.116509,0.0644 -0.174765,0.0967 -0.03441,0.0191 -0.06945,0.0379 -0.103366,0.0568 l -1.793323,-2.4241 c 0.603672,-0.23809 1.241143,-0.48321 1.934464,-0.73499 z m 40.31865,0.0249 c 0.110133,0.0403 0.228213,0.0814 0.336663,0.1216 l -0.314246,0.3731 z m -9.907283,0.066 c 0.231724,0.0871 0.46165,0.17486 0.687855,0.26436 l 0.181823,3.85051 -0.674987,0.0174 z m 5.78845,0.007 0.08884,1.42142 c -0.02827,-0.0134 -0.05455,-0.0264 -0.08302,-0.0398 -0.271142,-0.12795 -0.554471,-0.25706 -0.843943,-0.38638 l -0.005,-0.0817 z m 4.516933,0.0705 c 0.155626,0.0578 0.308152,0.11473 0.45954,0.17182 l 0.01286,0.42995 -0.782089,0.9176 -0.06061,-1.08029 z m -32.691627,0.0623 0.208808,4.55479 -1.566252,0.0394 -0.184315,-4.02482 c 0.506093,-0.19833 1.020049,-0.38815 1.541759,-0.5694 z m 27.178817,0.11911 0.04151,0.69225 c -0.158635,-0.0703 -0.316039,-0.1405 -0.479882,-0.21083 z m 6.073641,0.0286 c 0.06242,0.0237 0.123081,0.047 0.184729,0.0705 l -0.167709,0.19713 z m -10.062539,0.0232 c 0.33717,0.13452 0.66687,0.27087 0.990064,0.40879 l 0.15235,3.36743 -0.963082,0.0245 z m 10.288779,0.0631 c 0.192132,0.0735 0.376091,0.14537 0.560414,0.21747 l 0.06434,1.07323 -0.239524,0.28677 -0.471164,0.56401 -0.119555,-1.89787 z m 0.676647,0.26395 c 0.210123,0.0826 0.404329,0.16138 0.603588,0.24154 l -0.549621,0.6578 z m -1.937784,0.002 0.06725,1.07156 -0.115404,0.1353 -0.780012,0.91594 -0.06061,-1.06908 z m -42.216169,0.0191 1.778794,2.43863 c -0.496793,0.2778 -0.960197,0.54415 -1.344994,0.77732 -0.13229,0.0802 -0.233324,0.14522 -0.351606,0.21871 l -0.15235,-3.40803 c 0.02236,-0.009 0.04767,-0.0181 0.07016,-0.027 z m 5.903439,0.0539 0.186389,0.24901 c -0.05719,0.0248 -0.113961,0.0494 -0.170614,0.0743 z m -6.084848,0.0162 0.173105,3.42055 c -0.02653,0.0166 -0.0556,0.0344 -0.08136,0.0506 -0.01749,0.011 -0.03807,0.0236 -0.05521,0.0344 l -1.9656,-2.659 -0.0021,-0.0448 c 0.572677,-0.24767 1.206006,-0.51327 1.931144,-0.80181 z m 43.348204,0.0137 0.119555,1.8991 -0.793711,0.9508 -0.107933,-1.92193 z m -34.821199,0.01 0.182655,3.98497 -0.257376,0.006 -0.178087,-3.88911 c 0.08437,-0.0339 0.168042,-0.0686 0.252808,-0.10209 z m 25.948399,0.017 c 0.336551,0.14468 0.666446,0.29002 0.985498,0.43576 l 0.169785,2.85406 -1.00501,0.0253 z m 5.909249,0.0299 0.104197,1.66919 c -0.273055,-0.14781 -0.548203,-0.29649 -0.85515,-0.45361 -0.02727,-0.014 -0.05715,-0.0283 -0.08469,-0.0423 l -0.0095,-0.1656 z m -32.221709,0.10002 0.176012,3.84677 -1.682072,0.0423 -0.141141,-3.18607 c 0.541751,-0.24288 1.090538,-0.47751 1.647201,-0.70303 z m 36.851972,0.0104 c 0.133109,0.0537 0.277997,0.11027 0.40599,0.16268 l 0.02906,0.48017 -0.689099,0.818 -0.30055,0.35691 -0.06476,-1.08562 z m -5.624892,0.10168 0.05106,0.81633 -0.05313,0.0635 c -0.167915,-0.0847 -0.33896,-0.16972 -0.515995,-0.25607 z m 6.147946,0.1079 c 0.0717,0.0295 0.13548,0.0565 0.205483,0.0855 l -0.188465,0.2237 z m 0.264846,0.11039 c 0.145028,0.0603 0.271861,0.11499 0.409309,0.17307 l 0.06767,1.11929 -0.550866,0.65987 -0.07348,0.088 -0.09548,-1.75178 z m -10.224436,0.0295 c 0.345542,0.15896 0.666887,0.31505 0.98882,0.47187 l 0.137819,2.30084 -0.959345,0.0241 z m 10.74998,0.19298 c 0.208589,0.0885 0.434224,0.18192 0.623926,0.26437 l -0.566639,0.67855 z m -48.369512,0.12617 0.169371,3.42511 -0.426745,0.0108 -1.25159,-1.67832 0.251563,-0.30296 -0.543808,-0.0888 -0.244508,-0.32786 -0.0041,-0.105 c 0.446119,-0.21548 1.154159,-0.54367 2.049868,-0.93295 z m 47.496513,0.0636 0.10544,1.74099 -0.363232,0.43494 -0.671251,0.017 -0.06061,-1.01845 z m -39.050455,0.0112 0.13865,3.13793 -0.258204,0.007 -0.1482,-3.02089 c 0.08945,-0.0409 0.177953,-0.0832 0.267754,-0.12368 z m -8.329823,0.0237 1.909142,2.58969 c -0.666077,0.42171 -1.023126,0.67505 -1.082222,0.71715 l -0.686194,0.017 z m 48.950265,0.0714 c 0.140018,0.061 0.256164,0.11363 0.382327,0.16974 l 0.0166,0.55736 -0.281452,0.33409 -0.683291,0.81052 -0.06808,-1.12552 z m -2.735649,0.0212 0.06476,1.08236 -0.707368,0.83957 -0.06808,-1.07862 z m -1.820306,0.0145 0.119555,1.90284 c -0.06257,-0.0395 -0.106445,-0.0685 -0.176012,-0.11164 -0.234158,-0.14512 -0.515236,-0.31303 -0.825675,-0.49387 l -0.01328,-0.23531 z m -5.7843,0.004 c 0.268768,0.13179 0.538664,0.26261 0.788731,0.39053 v 4.2e-4 l 0.109176,1.8298 -0.763406,0.0191 z m 4.729478,0.0162 0.066,1.06078 -0.08925,0.105 c -0.207941,-0.11958 -0.411956,-0.23807 -0.64925,-0.36854 z m -35.375388,0.017 0.13367,2.97856 -1.619388,0.0407 -0.109176,-2.25892 c 0.526405,-0.26028 1.058181,-0.51347 1.594894,-0.76031 z m 33.407297,0.095 v 0.003 c -6.38e-4,-4.2e-4 -0.0013,-8.5e-4 -0.0021,-0.001 z m 8.075767,0.0523 c 0.07701,0.0344 0.165076,0.0729 0.23911,0.10624 l -0.22956,0.27267 z m 0.295568,0.13115 c 0.471954,0.21288 0.824536,0.37898 1.097994,0.50922 l -1.004593,1.13963 -0.294736,0.007 -0.0797,-1.32016 z m -10.227342,0.14027 c 0.326352,0.16804 0.644781,0.33407 0.934854,0.49096 l 0.07846,1.2521 -0.907455,0.0228 z m -41.79233,0.32413 0.0162,0.32288 -0.501465,-0.0818 c 0,0 0.203968,-0.10364 0.485276,-0.24112 z m 51.631534,4.2e-4 0.07223,1.19441 -1.031991,0.0262 -0.0041,-0.066 z m -1.144076,0.054 0.06808,1.12677 -0.03695,0.0436 -0.63223,0.0158 -0.02449,-0.44987 0.624342,-0.73458 z m -41.940112,0.0112 0.09714,2.21369 -1.947332,0.049 -0.05853,-1.28405 c 0.632043,-0.33314 1.267439,-0.66031 1.908728,-0.97861 z m 44.626363,0.005 c 0.296378,0.14149 0.468256,0.22701 0.468256,0.22701 l -0.03736,0.56318 -0.246166,0.29259 -1.171887,0.0295 z m -53.055399,0.0569 0.176012,0.24112 -0.166879,-0.0274 z m 47.557119,0.0461 0.06808,1.07903 -0.03611,0.0432 -0.620191,0.0154 c -0.06537,-0.0417 -0.134903,-0.0856 -0.202581,-0.12866 l -0.0037,-0.066 z m -4.851938,0.0465 c 0.329629,0.17927 0.635231,0.3493 0.910777,0.50673 l 0.04193,0.66776 -0.883793,0.0224 z m 5.738221,0.15687 0.05355,0.89602 -0.75635,0.0187 -0.0046,-0.0755 0.550035,-0.65281 z m -2.873885,0.01 0.0046,0.076 c -0.01458,-0.008 -0.03175,-0.0181 -0.04649,-0.0266 z m -1.857667,0.39593 c 0.380421,0.21861 0.69378,0.40492 0.950629,0.56151 l 0.0017,0.0253 -0.917002,0.0232 z m -43.212045,0.0291 1.197626,1.63972 -1.597802,0.0403 -0.04815,-1.14088 z m 49.149525,0.0905 0.02074,0.34114 -0.317568,0.008 z m 3.832399,0.0299 -0.01454,0.21581 -0.16937,0.004 z m -47.072258,0.17099 0.05604,1.22844 -2.080172,0.0523 -0.0083,-0.18469 c 0.676477,-0.36928 1.353288,-0.73713 2.032434,-1.09605 z m -6.455134,0.36521 0.05065,1.02592 -0.551698,0.0137 -0.05687,-0.36811 z m 48.298523,0.72794 h 0.241601 l -0.088,0.10541 z m 0.297642,0 h 0.0017 l 0.01286,0.21456 -0.124534,-0.0855 z m 0.11499,0 h 0.916587 l -0.487352,0.57811 -0.411386,-0.28262 z m 1.014971,0 h 0.04733 l 0.06393,1.05663 -0.631401,-0.43369 z m 0.140312,0 h 0.677892 l 0.044,0.72752 -0.44833,0.53703 -0.212542,-0.14609 z m 0.791636,0 h 0.537581 l -0.501466,0.60053 z m 0.601926,0 h 0.431726 l 0.04774,0.79226 -0.838547,0.99479 -0.14114,-0.0967 -0.06185,-1.02343 0.514749,-0.6109 z m 0.546299,0 h 0.60068 l -0.560829,0.66568 z m 0.665439,0 h 0.984253 l -1.540101,1.82731 -0.06517,-1.0836 z m 1.041125,0.004 -0.01909,1.18944 -1.259892,1.50899 -0.34538,-0.23739 h 0.06559 l -0.03321,-0.55404 z m -49.176922,0.0456 0.0071,0.13986 -0.276885,0.007 c 0.0899,-0.0488 0.179895,-0.0978 0.269828,-0.14692 z m 41.808934,0.0618 v 4.3e-4 4.2e-4 4.3e-4 4.2e-4 c 0.08502,-0.0283 6.34762,4.61829 6.34762,4.61829 h -1.218383 l -0.141555,0.73662 -35.338855,0.79143 v -5.63801 c 0,0 30.237818,-0.48172 30.351173,-0.51005 z m -32.731479,0.53993 v 5.80814 l -4.902997,0.14152 v -0.4532 h -2.805389 v -0.53827 h -1.841892 v -0.42498 h -2.607377 v -1.21806 h -0.538411 v -0.79351 l 0.453311,-0.59472 -0.198012,-0.0569 1.501907,-1.30314 z m 37.179088,0.14069 0.0494,0.81675 -0.467425,-0.3208 z m 1.151961,0.0789 0.06517,1.08194 -0.244507,0.2901 -0.614378,-0.42166 z m 7.209412,0.26064 4.10928,0.0569 v 2.91797 l -3.57087,0.0569 z m -57.102832,0.0282 -1.38858,1.10518 -0.765069,-0.82173 0.407233,-0.0535 0.01951,0.48848 0.08552,0.0967 -0.01826,-0.59679 z m 51.641495,0.11205 -0.02159,1.33344 -0.501051,0.60053 -0.701555,-0.48142 z m -1.677503,0.76404 0.02366,0.39344 -0.223749,-0.15356 z m 1.654672,0.64162 -0.01369,0.8624 -0.451652,-0.31002 z"
         id="path2443"
         inkscape:connector-curvature="0" />
      <g
         id="g2765"
         transform="matrix(0.75,0,0,0.75,-370.76778,-742.00989)"
         style="fill:none;stroke:#ff0000">
        <g
           id="g2518"
           style="fill:none;stroke:#ff0000">
          <title
             id="title2282">Layer 1</title>
          <g
             transform="matrix(1.3333333,0,0,-1.3333333,44.901281,268.61981)"
             id="g10"
             style="fill:none;stroke:#ff0000;stroke-width:0.28346458;stroke-miterlimit:4;stroke-dasharray:none">
            <g
               transform="scale(0.1)"
               id="g12"
               style="fill:none;stroke:#ff0000;stroke-width:2.83464575;stroke-miterlimit:4;stroke-dasharray:none">
              <path
                 style="fill:none;fill-rule:evenodd;stroke:#ff0000;stroke-width:2.83464575;stroke-miterlimit:4;stroke-dasharray:none"
                 d="m 13041.752,13869.066 v -516.782 h -190.892 v -15.571 h -26.558 v -135.404 h 26.558 v -34.063 h -32.827 v -352.032 h -190.503 l 102.524,-668.13 h 87.979 v -79.233 h 60.308 l 110.097,-546.709 2.432,0.487 V 8258.821 h -62.417 v -188.5104 h -57.759 v 3066.7344 h -460.825 v -61.333 h -65.654 v -210.132 h -437.432 v -238.887 h -74.575 V 7570.7658 h -96.9 v 4038.1202 h 39.082 v 146.777 h -1075.18 v -146.777 h 48.881 V 7570.7658 h -304.218 v 3347.2122 h -50.186 v 98.73 h 51.987 v 74.004 h -96.665 v 450.059 h -81.284 v 261.094 h -209.868 v -261.094 h -81.2401 v -450.059 h -96.6797 v -74.004 h 51.9726 v -98.73 h -394.7021 v 59.517 h -133.1836 v -523.008 H 9085.567 v -68.467 h 39.0967 V 9157.2648 h -232.1045 v 55.8255 h -148.6231 v 55.8982 h -120.249 v 403.506 h -84.0527 v -403.506 -111.7237 h -86.7041 v 235.8982 h -59.303 v -235.8982 h -213.114 v -136.0111 h -298.1422 v -813.8229 h 0.657 V 7157.0206 h -1.3183 V 6119.9991 H 36667.55 c 0.338,500.3247 0,1002.8716 0,1500.5271 l -1.653,28.5498 v 0 c -97.386,131.323 -255.87,210.9167 -437.608,231.2842 -64.867,297.8397 -216.958,513.955 -496.45,610.591 l 431.836,583.8286 c -169.262,16.701 -850.27,-213.8941 -964.087,-266.5583 l -17.974,604.5413 c -516.475,-80.7015 -903.902,-384.9331 -1226.045,-802.1633 l -95.698,460.9425 c -255.668,-109.0793 -453.842,-263.6655 -568.169,-484.8923 -184.302,41.5028 -378.212,47.472 -580.151,23.9498 l 47.856,-484.8195 c -218.152,52.4936 -429.558,75.5956 -645.923,41.8507 l 86.484,-276.9874 c -1353.75,602.4874 -3141.856,1125.4107 -4442.475,1125.4107 -1081.324,0 -2499.644,-361.47 -3725.186,-829.5854 v 967.9987 h -71.938 v 200.6835 h -36.006 v 483.618 h -179.897 v -483.618 h -61.729 v 41.1622 h -221.016 v -41.1622 h -190.195 v 385.869 h -313.609 v 113.1735 h -247.131 V 10147.5 h -71.531 v -293.3067 h -77.124 v 123.501 h -241.64 v -236.6745 h -123.355 v -586.5525 h -97.661 v -241.6846 h -368.174 v 2481.5183 h -86.967 v 553.828 h -222.979 v 171.43 0 h -222.981 v 510.789 h -84.668 v -510.789 h -223.005 v -118.288 -53.145 h -280.005 v -553.828 h -96.9 V 8220.9797 h -165.351 V 9557.035 H 19949.04 V 8599.51 h -303.398 v 1814.385 h -153.457 v 711.504 h -692.944 v -62.124 h -384.888 v -51.753 h -93.062 V 9444.886 h -366.313 v 1349.268 h -60.117 v 444.477 l -168.999,-158.305 v 373.14 h -80.786 v -413.541 l -353.057,-280.854 v -166.714 l -165.923,-71.777 -420.498,53.144 V 7584.989 h -60.498 v 134.561 h -57.891 v 1757.5485 h -140.729 v 1862.5785 h -63.852 v 563.687 h -40.401 v 187.91 h -58.725 v 366.298 h -53.752 v 509.576 h -75.726 v -509.576 h -52.104 l -155.288,-225.366 h -157.178 v -140.932 h -93.853 v -187.91 h -483.662 v -211.362 h -70.415 V 9730.5318 h -268.696 V 8382.8897 h -309.651 V 7367.6066 h -71.619 v 2981.4114 h -72.407 v 227.754 h -51.694 v 269.121 h -137.241 v 66.284 h -100.122 v -66.284 h -144.859 v 74.136 h -81.738 v 47.725 h -50.742 v -47.725 h -135.21 v 88.183 h -79.097 v -88.183 h -101.572 v -74.136 h -83.218 v -269.121 h -51.694 v -227.754 h -72.408 V 8258.8172 h -159.931 v 3262.8088 l 2.431,-0.488 110.098,546.709 h 60.308 v 79.234 h 87.978 l 102.525,668.13 h -190.503 v 352.031 h -32.784 v 34.067 h 26.558 v 135.401 h -26.558 v 15.57 h -190.895 v 516.783 z M 27733.117,8943.544 v -330.8933 l -167.974,326.9678 c 56.825,2.2522 112.889,3.63 167.974,3.9255 z m 48.632,0 c 60.349,-0.3225 121.906,-1.9763 184.336,-4.6433 l -184.336,-358.8135 z m 255.703,-8.115 c 67.55,-3.7755 136.228,-8.8958 205.826,-15.1905 l -205.826,-400.635 z m -560.053,0 V 8552.05 l -189.902,369.624 c 64.154,5.643 127.502,10.2517 189.902,13.74 z m -255.776,-19.746 v -361.5233 l -175.723,341.9385 c 59.153,7.32 117.772,13.893 175.723,19.5848 z m 1078.842,-0.75 c 60.749,-6.0323 122.175,-12.9435 184.233,-20.757 l -191.469,-372.5978 v 379.263 z m -774.434,-15.6735 207.086,-403.0665 v -10.767 l -0.188,-0.3675 0.188,-0.105 v -0.3375 c -67.981,-0.405 -137.05,-2.4923 -207.086,-6.1965 z m 1022.974,-13.5503 c 68.379,-9.2017 137.409,-19.3687 207.085,-30.5707 v -4.6733 l -207.085,-402.9637 z m -1583.144,0 v -405.645 l -193.814,377.139 c 65.168,10.3733 129.789,19.8893 193.814,28.506 z m 1022.958,-18.9112 v -388.3598 c -64.598,3.4163 -128.376,5.4653 -191.235,6.0795 l 1.084,0.555 -2.988,5.8005 z m -1278.676,-19.7025 v -405.8933 l -191.147,371.9528 c 64.134,12.078 127.865,23.3992 191.147,33.9405 z m 2103.252,-1.4355 c 65.451,-10.9695 131.371,-22.7708 197.725,-35.376 l -206.397,-401.6453 v 420.132 z m -1798.901,-4.7753 199.672,-388.5495 c -65.948,-7.47 -132.557,-16.2352 -199.672,-26.1037 z m 255.776,-2.109 187.28,-364.4385 c -61.592,-4.1325 -123.839,-9.3967 -186.739,-15.879 l -0.54,1.0545 z m 1230.103,-30.4545 v -382.0747 c -61.743,9.078 -123.062,17.205 -183.824,24.2572 z m -255.777,-2.0947 v -347.8268 c -57.588,5.94 -114.624,10.8638 -171.123,14.8388 z m -1790.171,-5.3318 V 8402.05 l -185.332,360.762 c 62.053,13.311 123.867,26.052 185.332,38.0565 z m 2611.142,-0.996 c 64.788,-12.6885 129.936,-26.0895 195.367,-40.2247 l -200.449,-390.0878 v 420.4245 z m -2306.791,-33.2085 180.849,-351.8992 c -59.921,-9.5228 -120.215,-19.9305 -180.849,-31.2158 z m 2557.426,-19.233 c 63.623,-14.0932 127.477,-28.8337 191.514,-44.1945 l -191.514,-372.7882 z m -3117.539,0 v -384.273 l -176.557,343.6673 c 59.029,14.0775 117.885,27.6082 176.557,40.6057 z m 2557.427,-13.2862 v -350.5665 c -55.397,10.3102 -110.544,19.9567 -165.351,28.7985 z m -2253.091,-6.2108 183.97,-358.0957 c -61.05,-11.9903 -122.4,-24.8408 -183.97,-38.4818 z m 2508.853,-32.5785 v -363.984 c -56.468,12.51 -112.744,24.3248 -168.78,35.4488 z m -2764.556,-6.4597 191.177,-372.114 c -63.546,-14.6175 -127.284,-30.0188 -191.177,-46.26 z m -304.351,-1.1723 V 8305.909 l -173.569,337.749 c 57.941,15.153 115.81,29.8927 173.569,44.0917 z m 3629.034,0 c 62.646,-15.4005 125.435,-31.3657 188.291,-47.8852 l -188.291,-366.4013 z m -304.41,-31.3912 v -385.7963 c -58.872,14.9648 -117.621,29.229 -176.205,42.8175 z m -3275.991,-6.4598 202.002,-393.1935 c -65.794,-17.157 -131.7,-35.1607 -197.651,-53.9064 l -4.351,8.4669 z m 3836.104,-28.023 c 66.807,-17.9535 133.637,-36.5092 200.464,-55.62 l -200.464,-390.1756 z m -4140.513,-0.075 v -413.2911 l -185.903,361.8456 c 61.973,17.646 123.952,34.7963 185.903,51.4455 z m 3836.104,-4.6147 v -415.6345 c -62.457,17.7835 -124.883,34.9502 -187.208,51.3137 z m -3787.471,-24.5505 207.143,-403.0957 v -1.9483 c -69.069,-20.0547 -138.141,-40.9284 -207.143,-62.5781 z m 4043.321,-32.4465 v -435.1756 c -64.468,20.2265 -129.005,39.7414 -193.536,58.5791 z m 304.335,-9.8438 c 64.259,-18.6757 128.468,-37.8277 192.554,-57.48 l -192.554,-374.7805 z m -4651.992,0 v -399.7999 l -178.125,346.6992 c 59.297,18.1132 118.685,35.8252 178.125,53.1007 z m 48.574,-55.02 199.439,-388.1979 c -64.437,-20.6185 -128.78,-41.8672 -192.95,-63.75 l -6.489,12.6269 z m 4859.136,-22.0605 c 64.835,-20.2192 129.503,-40.9125 193.96,-62.0355 l -193.96,-377.5345 z m -5163.428,0 v -407.1388 l -179.736,349.7608 c 59.747,19.5105 119.669,38.646 179.736,57.378 z m 4859.077,-10.371 v -421.7141 c -61.569,21.0388 -123.289,41.5416 -185.112,61.4209 z m -4810.503,-25.503 207.144,-403.1984 v -9.6973 c -66.222,-22.9751 -132.212,-46.6343 -197.93,-70.8252 l -9.214,17.9297 z m 2508.795,-25.137 v -921.035 h -207.086 v 914.414 c 70.088,3.9615 139.16,6.1883 207.086,6.621 z m 48.632,0 c 67.924,-0.435 136.985,-2.6595 207.07,-6.621 v -914.414 h -207.07 z m 2508.853,-7.3095 V 7950.286 c -65.48,24.1672 -131.238,47.7876 -197.227,70.752 z m -2813.203,-2.3287 v -911.3968 h -207.129 v 892.9543 c 69.865,7.6747 138.946,13.8525 207.129,18.4425 z m 560.053,0 c 68.188,-4.59 137.274,-10.767 207.144,-18.4425 v -892.9543 h -207.144 z m 2557.5,-11.7338 c 67.294,-22.392 134.292,-45.252 200.948,-68.5252 l -200.948,-391.128 z m -5675.039,0 v -426.9873 l -186.767,363.4571 c 61.964,21.5632 124.258,42.7297 186.767,63.5302 z m 2301.71,-12.2317 v -887.4021 h -207.129 v 858.8233 c 69.666,10.878 138.745,20.4323 207.129,28.5788 z m 1071.606,0 c 68.385,-8.1465 137.473,-17.7 207.144,-28.5788 v -858.8233 h -207.144 z m -3324.609,-25.7663 207.128,-403.0664 v -17.5635 c -67.036,-25.0886 -133.752,-50.7341 -200.024,-76.9483 l -7.104,13.8135 z m 1997.241,-10.5322 v -851.1036 h -207.085 v 813.6178 c 69.477,13.7025 138.548,26.2245 207.085,37.4858 z m 1583.144,0 c 68.536,-11.2613 137.608,-23.7833 207.085,-37.4858 v -813.6178 h -207.085 z m -3829.878,-19.9365 -6.284,-3.237 v 1.0252 c 2.098,0.735 4.185,1.479 6.284,2.2118 z m 5827.178,-1.9778 v -467.9734 c -66.502,26.3553 -133.435,52.1483 -200.713,77.373 z m 304.35,-17.2995 c 61.592,-21.7815 122.82,-43.9245 183.677,-66.372 l -183.677,-436.714 z m -6186.445,0 v -463.2863 l -169.175,402.2461 c 56.086,20.6197 112.472,40.9875 169.175,61.0402 z m 2045.933,-8.0565 v -803.804 h -207.144 v 758.291 c 69.348,16.2555 138.433,31.4573 207.144,45.513 z m 2094.58,0 c 68.71,-14.0557 137.782,-29.2582 207.129,-45.513 v -758.291 h -207.129 z m -4091.88,-44.5312 207.07,-402.9642 v -14.502 c -69.575,-27.9361 -138.613,-56.4541 -207.07,-85.4736 z m 1741.582,-12.5393 v -746.7335 h -207.129 v 693.9111 c 69.208,18.5932 138.275,36.2212 207.129,52.8224 z m 2606.06,0 c 68.836,-16.5975 137.894,-34.219 207.084,-52.8074 v -693.9111 h -207.084 z m 1741.596,-19.9072 v -470.4783 c -65.93,27.9483 -132.393,55.4517 -199.365,82.3974 z m 304.292,-8.0857 c 61.338,-22.9963 122.253,-46.2758 182.637,-69.8584 l -182.637,-423.3985 z m -6697.939,-0.045 v -454.3067 l -168.281,390.0733 c 55.663,21.6696 111.814,43.0631 168.281,64.2334 z m 48.691,-14.6631 198.545,-472.1192 c -65.953,-28.3724 -131.305,-57.1963 -195.952,-86.4258 l -2.593,6.0206 z m 1741.538,-23.2764 v -680.7422 h -207.085 v 621.1524 c 69.051,20.7675 138.118,40.6303 207.085,59.5898 z m 3117.539,0 c 68.963,-18.9583 138.024,-38.8238 207.071,-59.5898 v -621.1524 h -207.071 z m 1741.597,-16.3623 v -520.0781 c -60.883,27.5454 -122.374,54.7437 -184.424,81.5332 z m 304.351,-44.2529 c 62.532,-24.8224 124.457,-49.9278 185.727,-75.2784 l -185.727,-445.3125 z m -7209.434,-0.03 v -480.4835 l -120.41,288.6035 v 143.3643 c 39.906,16.2717 79.988,32.4705 120.41,48.5157 z m 48.633,-10.0782 207.085,-480.1904 v -7.6465 c -69.934,-32.0313 -139.005,-64.5256 -207.085,-97.3828 z m 1741.596,-3.7061 v -606.3134 h -207.143 v 540.2197 c 68.942,22.8443 138.017,44.8947 207.143,66.0937 z m 3629.034,-0.015 c 69.128,-21.1999 138.199,-43.2632 207.144,-66.1084 V 7491.29 h -207.144 z m 1741.596,-35.0244 v -546.4746 c -64.467,31.1136 -129.846,61.8791 -195.981,92.2559 z m -5626.406,-47.2998 V 7491.29 h -207.129 v 451.6699 c 68.801,24.8369 137.872,48.9618 207.129,72.3047 z m 4140.513,0 c 69.262,-23.3443 138.338,-47.4662 207.143,-72.3047 V 7491.29 h -207.143 z m 1790.303,-8.4375 c 64.57,-27.141 128.368,-54.5242 191.25,-82.1338 l -176.001,-421.9922 h -15.249 z m -48.707,-57.7002 v -446.4258 h -186.152 z m -6137.812,-23.789 V 7491.29 h -207.144 v 355.6494 c 68.658,26.7931 137.739,52.9571 207.144,78.3985 z m 4651.992,-0.03 c 69.403,-25.4411 138.487,-51.5911 207.144,-78.3838 v -355.6348 h -207.144 z m 1790.229,-29.165 c 61.488,-27.4062 122.058,-54.9968 181.641,-82.7344 l -113.042,-310.7081 h -68.599 z m -6697.939,-68.335 v -336.5186 h -207.128 v 252.085 c 68.496,28.7448 137.568,56.9016 207.128,84.4336 z m 5163.428,-0.015 c 69.558,-27.5312 138.635,-55.6897 207.129,-84.4337 v -240.6591 h -207.129 z m 1485.879,-3.3106 v -321.7822 h -134.224 z m 278.598,-33.6475 c 50.76,-23.9137 100.803,-47.9206 149.986,-71.997 0.04,-20.9321 19.775,-98.1885 19.775,-98.1885 v -117.9492 h -274.57 z m -8071.347,-9.58 120.41,-288.6182 v -0.1755 c -0.803,-0.3922 -1.614,-0.7794 -2.417,-1.1718 h -107.534 v 11.4111 h -10.459 z m 887.607,-58.4619 V 7491.289 h -207.07 v 140.8886 c 68.295,30.7254 137.352,60.962 207.07,90.6153 z m 5675.039,0 c 69.738,-29.6611 138.816,-59.8962 207.129,-90.6299 v -129.4629 h -207.129 z m 255.703,-112.6026 c 69.959,-31.8857 139.036,-64.2788 207.144,-97.0898 v -10.4004 h -207.144 z m -6186.445,-0.015 v -118.8867 h -207.085 v 21.8261 c 68.089,32.8022 137.147,65.1831 207.085,97.0606 z"
                 id="path14"
                 inkscape:connector-curvature="0"
                 sodipodi:nodetypes="cccccccccccccccccccccccccccccccccccccccccccccccccccccccccccccccccccccccccccccccccccccccccccccccccccccsccccccccccccccccccccccccccccccccccccccccccccccccccccccccccccccccccccccccccccccccccccccccccccccccccccccccccccccccccccccccccccccccccccccccccccccccccccccccccccccccccccccccccccccccccccccccccccccccccccccccccccccccccccccccccccccccccccccccccccccccccccccccccccccccccccccccccccccccccccccccccccccccccccccccccccccccccccccccccccccccccccccccccccccccccccccccccccccccccccccccccccccccccccccccccccccccccccccccccccccccccccccccccccccccccccccccccccccccccccccccccccccccccccccccccccccccccccccccccccccccccccccccccccccccccccccccccccccccccccccccccccccccccccccccccaccccacscccccccccccccccccccccccccc" />
            </g>
          </g>
        </g>
      </g>
    </g>
  </g>
</svg>
