<?xml version="1.0" encoding="UTF-8" standalone="no"?>
<svg
   xmlns:dc="http://purl.org/dc/elements/1.1/"
   xmlns:cc="http://creativecommons.org/ns#"
   xmlns:rdf="http://www.w3.org/1999/02/22-rdf-syntax-ns#"
   xmlns:svg="http://www.w3.org/2000/svg"
   xmlns="http://www.w3.org/2000/svg"
   xmlns:sodipodi="http://sodipodi.sourceforge.net/DTD/sodipodi-0.dtd"
   xmlns:inkscape="http://www.inkscape.org/namespaces/inkscape"
   sodipodi:docname="boitier-interne.svg"
   inkscape:version="1.0.2 (1.0.2+r75+1)"
   id="svg8"
   version="1.1"
   viewBox="0 0 221.27502 160.2"
   height="160.2mm"
   width="221.27502mm">
  <sodipodi:namedview
     id="base"
     pagecolor="#ffffff"
     bordercolor="#666666"
     borderopacity="1.0"
     inkscape:pageopacity="0.0"
     inkscape:pageshadow="2"
     inkscape:zoom="0.7"
     inkscape:cx="186.12789"
     inkscape:cy="566.98807"
     inkscape:document-units="mm"
     inkscape:current-layer="layer1"
     showgrid="false"
     inkscape:window-width="3773"
     inkscape:window-height="1545"
     inkscape:window-x="67"
     inkscape:window-y="27"
     inkscape:window-maximized="1"
     inkscape:document-rotation="0"
     lock-margins="true"
     fit-margin-top="10"
     fit-margin-left="10"
     fit-margin-right="10"
     fit-margin-bottom="10" />
  <defs
     id="defs2" />
  <metadata
     id="metadata5">
    <rdf:RDF>
      <cc:Work
         rdf:about="">
        <dc:format>image/svg+xml</dc:format>
        <dc:type
           rdf:resource="http://purl.org/dc/dcmitype/StillImage" />
        <dc:title></dc:title>
      </cc:Work>
    </rdf:RDF>
  </metadata>
  <g
     id="layer1"
     inkscape:groupmode="layer"
     inkscape:label="Calque 1"
     transform="translate(10.05,10.15)">
    <g
       id="g981"
       transform="translate(3.8571807,-0.79138)">
      <path
         style="opacity:1;fill:none;fill-opacity:1;stroke:#ff0000;stroke-width:0.0999999;stroke-miterlimit:4;stroke-dasharray:none;stroke-dashoffset:0;stroke-opacity:1"
         d="m 55.735452,125.01639 a 5.075,5.075 0 0 1 -5.075,5.075 5.075,5.075 0 0 1 -5.075,-5.075 5.075,5.075 0 0 1 5.075,-5.075 5.075,5.075 0 0 1 5.075,5.075 z"
         id="path854" />
      <path
         style="opacity:1;fill:none;fill-opacity:1;stroke:#ff0000;stroke-width:0.1;stroke-miterlimit:4;stroke-dasharray:none;stroke-dashoffset:0;stroke-opacity:1"
         d="m 16.021759,124.79138 a 2.8,2.8 0 0 1 -2.8,2.8 2.8,2.8 0 0 1 -2.8,-2.8 2.8,2.8 0 0 1 2.8,-2.8 2.8,2.8 0 0 1 2.8,2.8 z"
         id="path854-3" />
      <g
         aria-label="5V"
         transform="matrix(0.99625448,0,0,1.0037596,76.881873,-145.06696)"
         style="font-style:normal;font-variant:normal;font-weight:normal;font-stretch:normal;font-size:5.26607px;line-height:1.25;font-family:'Open Sans';-inkscape-font-specification:'Open Sans';letter-spacing:0px;word-spacing:0px;fill:none;fill-opacity:1;stroke:#0000ff;stroke-width:0.1;stroke-miterlimit:4;stroke-dasharray:none"
         id="text873">
        <path
           d="m -73.069397,268.40531 q 0.593976,0 0.933391,0.29571 0.341986,0.29313 0.341986,0.80482 0,0.58369 -0.372842,0.91539 -0.370271,0.3317 -1.023387,0.3317 -0.635118,0 -0.96939,-0.20313 v -0.41141 q 0.179993,0.11571 0.447411,0.18256 0.267418,0.0643 0.527121,0.0643 0.452554,0 0.701972,-0.21342 0.25199,-0.21342 0.25199,-0.61711 0,-0.78683 -0.964247,-0.78683 -0.244276,0 -0.653116,0.0746 l -0.221134,-0.14142 0.141422,-1.75879 h 1.869354 v 0.39341 h -1.504225 l -0.09514,1.12881 q 0.295702,-0.0591 0.588833,-0.0591 z"
           style="fill:none;stroke:#0000ff;stroke-width:0.1;stroke-miterlimit:4;stroke-dasharray:none"
           id="path951" />
        <path
           d="m -68.824139,266.94223 h 0.470553 l -1.355089,3.75928 h -0.431982 l -1.347375,-3.75928 h 0.462839 l 0.863965,2.43247 q 0.149137,0.41913 0.236562,0.81511 0.09257,-0.41655 0.241704,-0.83053 z"
           style="fill:none;stroke:#0000ff;stroke-width:0.1;stroke-miterlimit:4;stroke-dasharray:none"
           id="path953" />
      </g>
      <g
         aria-label="in"
         transform="matrix(0.99625448,0,0,1.0037596,75.294363,-145.06696)"
         style="font-style:normal;font-variant:normal;font-weight:normal;font-stretch:normal;font-size:5.26607px;line-height:1.25;font-family:'Open Sans';-inkscape-font-specification:'Open Sans';letter-spacing:0px;word-spacing:0px;fill:none;fill-opacity:1;stroke:#0000ff;stroke-width:0.1;stroke-miterlimit:4;stroke-dasharray:none"
         id="text873-5">
        <path
           d="m -34.728216,270.77994 h -0.42684 v -2.81817 h 0.42684 z m -0.462838,-3.58186 q 0,-0.14656 0.072,-0.21342 0.072,-0.0694 0.179993,-0.0694 0.102853,0 0.177421,0.0694 0.07457,0.0694 0.07457,0.21342 0,0.144 -0.07457,0.21599 -0.07457,0.0694 -0.177421,0.0694 -0.107996,0 -0.179993,-0.0694 -0.072,-0.072 -0.072,-0.21599 z"
           style="fill:none;stroke:#0000ff;stroke-width:0.1;stroke-miterlimit:4;stroke-dasharray:none"
           id="path963" />
        <path
           d="m -31.889472,270.77994 v -1.82307 q 0,-0.34456 -0.156851,-0.51427 -0.156851,-0.1697 -0.491123,-0.1697 -0.442268,0 -0.647974,0.23913 -0.205706,0.23913 -0.205706,0.7894 v 1.47851 h -0.42684 v -2.81817 h 0.347129 l 0.06943,0.38569 h 0.02057 q 0.131138,-0.20827 0.367699,-0.32141 0.236562,-0.11571 0.527122,-0.11571 0.509123,0 0.766255,0.24685 0.257133,0.24427 0.257133,0.78425 v 1.8385 z"
           style="fill:none;stroke:#0000ff;stroke-width:0.1;stroke-miterlimit:4;stroke-dasharray:none"
           id="path965" />
      </g>
    </g>
    <g
       aria-label="12V"
       transform="matrix(0.99625448,0,0,1.0037596,41.379859,-100.88298)"
       style="font-style:normal;font-variant:normal;font-weight:normal;font-stretch:normal;font-size:5.26607px;line-height:1.25;font-family:'Open Sans';-inkscape-font-specification:'Open Sans';letter-spacing:0px;word-spacing:0px;fill:none;fill-opacity:1;stroke:#0000ff;stroke-width:0.1;stroke-miterlimit:4;stroke-dasharray:none"
       id="text873-6">
      <path
         d="m -30.296371,170.14764 h -0.416555 v -2.67932 q 0,-0.33427 0.02057,-0.63254 -0.054,0.054 -0.120852,0.11314 -0.06686,0.0591 -0.611976,0.5014 l -0.226276,-0.29313 0.995102,-0.76882 h 0.359986 z"
         style="fill:none;stroke:#0000ff;stroke-width:0.1;stroke-miterlimit:4;stroke-dasharray:none"
         id="path956" />
      <path
         d="m -26.393099,170.14764 h -2.471044 v -0.3677 l 0.98996,-0.9951 q 0.452554,-0.45769 0.596548,-0.65311 0.143994,-0.19543 0.215991,-0.38056 0.072,-0.18514 0.072,-0.39856 0,-0.30084 -0.182564,-0.47569 -0.182564,-0.17742 -0.506551,-0.17742 -0.233991,0 -0.444839,0.0771 -0.208278,0.0771 -0.46541,0.28027 l -0.226277,-0.29056 q 0.519408,-0.43198 1.131383,-0.43198 0.529693,0 0.830538,0.27256 0.300846,0.26999 0.300846,0.72768 0,0.35742 -0.200564,0.70712 -0.200563,0.3497 -0.750827,0.88453 l -0.822824,0.80483 v 0.0206 h 1.933637 z"
         style="fill:none;stroke:#0000ff;stroke-width:0.1;stroke-miterlimit:4;stroke-dasharray:none"
         id="path958" />
      <path
         d="m -23.443789,166.38837 h 0.470552 l -1.355088,3.75927 h -0.431983 l -1.347374,-3.75927 h 0.462838 l 0.863966,2.43247 q 0.149136,0.41913 0.236562,0.81511 0.09257,-0.41655 0.241704,-0.83054 z"
         style="fill:none;stroke:#0000ff;stroke-width:0.1;stroke-miterlimit:4;stroke-dasharray:none"
         id="path960" />
    </g>
    <path
       id="path1024"
       style="fill:none;stroke:#ff0000;stroke-width:0.377952"
       d="m 238.11008,76.933615 -4e-5,-18.214235"
       transform="scale(0.26458333)"
       sodipodi:nodetypes="cc" />
  </g>
  <g
     inkscape:label="Generic Box"
     inkscape:groupmode="layer"
     id="g878"
     transform="translate(10.05,10.15)" />
  <g
     inkscape:label="Generic Box"
     inkscape:groupmode="layer"
     id="g962"
     transform="translate(10.05,10.15)">
    <path
       id="Lid_Top"
       style="fill:none;stroke:#ff0000;stroke-width:0.377953"
       d="M 39.306641,0 V 11.337891 H 11.337891 V 39.685547 H 0 V 58.960938 H 11.337891 V 77.480469 H 0 v 19.27539 H 11.337891 V 115.27539 H 0 v 19.27539 h 11.337891 v 18.51953 H 0 v 19.27539 h 11.337891 v 18.51953 H 0 v 19.27735 h 11.337891 v 18.51953 H 0 v 19.27539 h 10.787109 a 14.929134,9.5209077 0 0 1 4.052735,-0.35742 14.929134,9.5209077 0 0 1 14.927734,9.52148 14.929134,9.5209077 0 0 1 -14.927734,9.51953 14.929134,9.5209077 0 0 1 -3.501953,-0.26562 v 0.10156 H 0 v 19.27539 h 11.337891 v 18.51953 H 0 v 19.27539 h 11.337891 v 18.51954 H 0 v 19.27539 h 11.337891 v 27.96875 h 28.347656 v 11.33984 h 19.275391 v -11.33984 h 18.519531 v 11.33984 h 19.27539 v -11.33984 h 18.519531 v 11.33984 h 19.27539 v -11.33984 h 18.51953 v 11.33984 h 19.27539 v -11.33984 h 18.51953 v 11.33984 h 19.27735 v -11.33984 h 27.9668 v -28.34571 h 11.33984 v -19.27539 h -11.33984 v -18.51953 h 11.33984 v -19.27734 h -11.33984 v -18.51953 h 11.33984 v -19.2754 h -11.33984 v -18.51953 h 11.33984 V 228.2832 h -11.33984 v -18.51953 h 11.33984 v -19.27539 h -11.33984 v -18.51953 h 11.33984 v -19.27539 h -11.33984 v -18.51953 h 11.33984 V 114.89844 H 238.10938 V 96.378906 h 11.33984 V 77.101562 H 238.10938 V 58.582031 h 11.33984 V 39.306641 H 238.10938 V 11.337891 H 209.76367 V 0 H 190.48828 V 11.337891 H 171.96875 V 0 H 152.69336 V 11.337891 H 134.17383 V 0 H 114.89844 V 11.337891 H 96.378906 V 0 H 77.101562 V 11.337891 H 58.582031 V 0 Z"
       transform="scale(0.26458333)" />
    <path
       style="fill:none;stroke:#ff0000;stroke-width:0.1"
       id="Bottom"
       d="m 71,3 h 7.4 V 0 h 5.1 v 3 h 4.9 V 0 h 5.1 v 3 h 4.9 V 0 h 5.1 v 3 h 4.9 V 0 h 5.1 v 3 h 4.9 V 0 h 5.1 v 3 h 7.5 v 7.4 h 3 v 5.1 h -3 v 4.9 h 3 v 5.1 h -3 v 4.9 h 3 v 5.1 h -3 v 4.9 h 3 v 5.1 h -3 v 4.9 h 3 v 5.1 h -3 v 4.9 h 3 v 5.1 h -3 v 4.9 h 3 v 5.1 h -3 v 4.9 h 3 v 5.1 h -3 v 4.9 h 3 v 5.1 h -3 v 7.5 h -7.4 v 3 h -5.1 v -3 h -4.9 v 3 h -5.1 v -3 h -4.9 v 3 h -5.1 v -3 h -4.9 v 3 h -5.1 v -3 h -4.9 v 3 h -5.1 v -3 H 71 v -7.4 h -3 v -5.1 h 3 v -4.9 h -3 v -5.1 h 3 v -4.9 h -3 v -5.1 h 3 v -4.9 h -3 v -5.1 h 3 v -4.9 h -3 v -5.1 h 3 v -4.9 h -3 v -5.1 h 3 v -4.9 h -3 v -5.1 h 3 v -4.9 h -3 v -5.1 h 3 v -4.9 h -3 v -5.1 h 3 z" />
    <path
       style="fill:none;stroke:#ff0000;stroke-width:0.1"
       id="Front"
       d="m 0,111 v -3 h 3 7.6 v 3 h 4.9 v -3 h 5.1 v 3 h 4.9 v -3 h 5.1 v 3 h 4.9 v -3 h 5.1 v 3 h 4.9 v -3 h 5.1 v 3 h 4.9 v -3 h 7.5 3 v 3 5.6 h -3 v 4.9 h 3 v 5.1 h -3 v 4.9 h 3 v 5.5 3 h -3 -7.6 v -3 h -4.9 v 3 h -5.1 v -3 h -4.9 v 3 h -5.1 v -3 h -4.9 v 3 h -5.1 v -3 h -4.9 v 3 h -5.1 v -3 h -4.9 v 3 H 3 0 v -3 -5.6 h 3 v -4.9 H 0 v -5.1 h 3 v -4.9 H 0 Z" />
    <path
       style="fill:none;stroke:#ff0000;stroke-width:0.1"
       id="Back"
       d="m 68,111 v -3 h 3 7.6 v 3 h 4.9 v -3 h 5.1 v 3 h 4.9 v -3 h 5.1 v 3 h 4.9 v -3 h 5.1 v 3 h 4.9 v -3 h 5.1 v 3 h 4.9 v -3 h 7.5 3 v 3 5.6 h -3 v 4.9 h 3 v 5.1 h -3 v 4.9 h 3 v 5.5 3 h -3 -7.6 v -3 h -4.9 v 3 h -5.1 v -3 h -4.9 v 3 h -5.1 v -3 h -4.9 v 3 h -5.1 v -3 h -4.9 v 3 h -5.1 v -3 h -4.9 v 3 H 71 68 v -3 -5.6 h 3 v -4.9 h -3 v -5.1 h 3 v -4.9 h -3 z" />
    <path
       style="fill:none;stroke:#ff0000;stroke-width:0.1"
       id="Left"
       d="m 172.17502,103 h -3 v -7.6 h 3 v -4.9 h -3 v -5.1 h 3 v -4.9 h -3 v -5.1 h 3 v -4.9 h -3 v -5.1 h 3 v -4.9 h -3 v -5.1 h 3 v -4.9 h -3 v -5.1 h 3 v -4.9 h -3 v -5.1 h 3 v -4.9 h -3 v -5.1 h 3 v -4.9 h -3 v -5.1 h 3 v -4.9 h -3 V 3 h 3 5.4 V 0 h 5.1 v 3 h 4.9 V 0 h 5.1 v 3 h 5.5 3 v 7.6 h -3 v 4.9 h 3 v 5.1 h -3 v 4.9 h 3 v 5.1 h -3 v 4.9 h 3 v 5.1 h -3 v 4.9 h 3 v 5.1 h -3 v 4.9 h 3 v 5.1 h -3 v 4.9 h 3 v 5.1 h -3 v 4.9 h 3 v 5.1 h -3 v 4.9 h 3 v 5.1 h -3 v 4.9 h 3 v 7.5 h -3 -5.4 v 3 h -5.1 v -3 h -4.9 v 3 h -5.1 v -3 z" />
    <path
       style="fill:none;stroke:#ff0000;stroke-width:0.1"
       id="Right"
       d="m 164.05834,2.9 h 3 v 7.6 h -3 v 4.9 h 3 v 5.1 h -3 v 4.9 h 3 v 5.1 h -3 v 4.9 h 3 v 5.1 h -3 v 4.9 h 3 v 5.1 h -3 v 4.9 h 3 v 5.1 h -3 v 4.9 h 3 v 5.1 h -3 v 4.9 h 3 v 5.1 h -3 v 4.9 h 3 v 5.1 h -3 v 4.9 h 3 v 7.5 h -3 -5.4 v 3 h -5.1 v -3 h -4.9 v 3 h -5.1 v -3 h -5.5 -3 v -7.6 h 3 v -4.9 h -3 v -5.1 h 3 v -4.9 h -3 v -5.1 h 3 v -4.9 h -3 v -5.1 h 3 v -4.9 h -3 v -5.1 h 3 v -4.9 h -3 v -5.1 h 3 v -4.9 h -3 v -5.1 h 3 v -4.9 h -3 v -5.1 h 3 v -4.9 h -3 v -5.1 h 3 v -4.9 h -3 V 2.9 h 3 5.4 v -3 h 5.1 v 3 h 4.9 v -3 h 5.1 v 3 z" />
  </g>
</svg>
