<?xml version="1.0" encoding="UTF-8" standalone="no"?>
<svg
   xmlns:dc="http://purl.org/dc/elements/1.1/"
   xmlns:cc="http://creativecommons.org/ns#"
   xmlns:rdf="http://www.w3.org/1999/02/22-rdf-syntax-ns#"
   xmlns:svg="http://www.w3.org/2000/svg"
   xmlns="http://www.w3.org/2000/svg"
   xmlns:sodipodi="http://sodipodi.sourceforge.net/DTD/sodipodi-0.dtd"
   xmlns:inkscape="http://www.inkscape.org/namespaces/inkscape"
   width="266.93387mm"
   height="256.86487mm"
   viewBox="0 0 266.93387 256.86487"
   version="1.1"
   id="svg1016"
   inkscape:version="1.0.2 (1.0.2+r75+1)"
   sodipodi:docname="cendrier.svg">
  <defs
     id="defs1010" />
  <sodipodi:namedview
     id="base"
     pagecolor="#ffffff"
     bordercolor="#666666"
     borderopacity="1.0"
     inkscape:pageopacity="0.0"
     inkscape:pageshadow="2"
     inkscape:zoom="0.70710678"
     inkscape:cx="826.83457"
     inkscape:cy="460.24963"
     inkscape:document-units="mm"
     inkscape:current-layer="g1550"
     inkscape:document-rotation="0"
     showgrid="false"
     inkscape:window-width="3773"
     inkscape:window-height="1545"
     inkscape:window-x="67"
     inkscape:window-y="27"
     inkscape:window-maximized="1"
     fit-margin-top="0"
     fit-margin-left="0"
     fit-margin-right="0"
     fit-margin-bottom="0" />
  <metadata
     id="metadata1013">
    <rdf:RDF>
      <cc:Work
         rdf:about="">
        <dc:format>image/svg+xml</dc:format>
        <dc:type
           rdf:resource="http://purl.org/dc/dcmitype/StillImage" />
        <dc:title></dc:title>
      </cc:Work>
    </rdf:RDF>
  </metadata>
  <g
     inkscape:label="Calque 1"
     inkscape:groupmode="layer"
     id="layer1"
     transform="translate(0.619302,-3.125)" />
  <g
     inkscape:label="Generic Box"
     inkscape:groupmode="layer"
     id="g3140"
     transform="translate(0.619302,-3.125)" />
  <g
     inkscape:label="Generic Box"
     inkscape:groupmode="layer"
     id="g3158"
     transform="translate(0.619302,-3.125)">
    <g
       id="g3289"
       transform="rotate(180,354.17,65.5)" />
  </g>
  <g
     inkscape:label="Generic Box"
     inkscape:groupmode="layer"
     id="g1489"
     transform="translate(0.619302,-3.125)" />
  <g
     inkscape:label="Generic Box"
     inkscape:groupmode="layer"
     id="g1514"
     transform="translate(0.619302,-3.125)" />
  <g
     inkscape:label="Generic Box"
     inkscape:groupmode="layer"
     id="g1550"
     transform="translate(0.619302,-3.125)">
    <path
       style="fill:none;stroke:#ff0000;stroke-width:0.1"
       id="Bottom"
       d="M 3.2645833,6.175 H 20.408583 v -3 h 10.839 v 3 h 10.639 v -3 h 10.839 v 3 h 10.639 v -3 h 10.839 v 3 h 10.639 v -3 h 10.839 v 3 h 10.638997 v -3 h 10.839 v 3 h 10.639 v -3 h 10.839 v 3 h 10.639 v -3 h 10.839 v 3 h 10.639 v -3 h 10.839 v 3 h 10.639 v -3 h 10.839 v 3 h 10.639 v -3 h 10.839 v 3 h 10.639 v -3 h 10.839 v 3 h 17.237 v 18.053 h 3 v 10.839 h -3 v 10.639 h 3 v 10.839 h -3 v 10.639 h 3 v 10.839 h -3 v 18.152 h -17.144 v 3 h -10.839 v -3 h -10.639 v 3 h -10.839 v -3 h -10.639 v 3 h -10.839 v -3 h -10.639 v 3 h -10.839 v -3 h -10.639 v 3 h -10.839 v -3 h -10.639 v 3 h -10.839 v -3 h -10.639 v 3 h -10.839 v -3 H 95.774583 v 3 h -10.839 v -3 h -10.639 v 3 h -10.839 v -3 h -10.639 v 3 h -10.839 v -3 h -10.639 v 3 h -10.839 v -3 H 3.2645833 V 78.122 H 0.26458333 V 67.283 H 3.2645833 V 56.644 H 0.26458333 V 45.805 H 3.2645833 V 35.166 H 0.26458333 V 24.327 H 3.2645833 Z" />
    <path
       style="fill:none;stroke:#ff0000;stroke-width:0.1"
       id="Front"
       d="m 0.26458333,104.175 v -3 H 3.2645833 263.26458 h 3 v 3 13.231 h -3 v 10.639 h 3 v 13.13 3 h -3 -17.344 v -3 h -10.639 v 3 h -10.839 v -3 h -10.639 v 3 h -10.839 v -3 h -10.639 v 3 h -10.839 v -3 h -10.639 v 3 h -10.839 v -3 h -10.639 v 3 h -10.839 v -3 h -10.639 v 3 h -10.839 v -3 h -10.639 v 3 H 95.574583 v -3 h -10.639 v 3 h -10.839 v -3 h -10.639 v 3 h -10.839 v -3 h -10.639 v 3 h -10.839 v -3 h -10.639 v 3 H 3.2645833 0.26458333 v -3 -13.231 H 3.2645833 V 117.305 H 0.26458333 Z" />
    <path
       style="fill:none;stroke:#ff0000;stroke-width:0.1"
       id="Back"
       d="m -0.569302,150.46226 v -3 h 3 260.000002 3 v 3 13.231 h -3 v 10.639 h 3 v 13.13 3 h -3 -17.344 v -3 h -10.639 v 3 h -10.839 v -3 h -10.639 v 3 h -10.839 v -3 h -10.639 v 3 h -10.839 v -3 h -10.639 v 3 h -10.839 v -3 h -10.639 v 3 h -10.839 v -3 h -10.639 v 3 h -10.839 v -3 h -10.639 v 3 H 94.740698 v -3 h -10.639 v 3 h -10.839 v -3 h -10.639 v 3 h -10.839 v -3 h -10.639 v 3 h -10.839 v -3 h -10.639 v 3 h -17.237 -3 v -3 -13.231 h 3 v -10.639 h -3 z" />
    <path
       style="fill:none;stroke:#ff0000;stroke-width:0.1"
       id="path1544"
       d="m 4.7406994,219.93988 v -3 H 19.790427 l 9.82738,-21.43539 h 40.24544 l 9.827391,21.43539 h 15.05006 v 3 13.031 h 2.999987 v 10.839 h -2.999987 v 13.13 3 H 76.487697 v -3 h -10.639 v 3 h -10.839 v -3 h -10.639 v 3 h -10.839 v -3 h -10.639 v 3 H 4.7406994 v -3 -13.031 H 1.7406995 v -10.839 h 2.9999999 z"
       sodipodi:nodetypes="ccccccccccccccccccccccccccccccccc" />
    <path
       style="fill:none;stroke:#ff0000;stroke-width:0.1"
       id="path1546"
       d="m 106.03237,219.84088 v -3 h 90 v 3 13.031 h 3 v 10.839 h -3 v 13.13 3 h -18.253 v -3 h -10.639 v 3 h -10.839 v -3 h -10.639 v 3 h -10.839 v -3 h -10.639 v 3 h -18.152 v -3 -13.031 h -3 v -10.839 h 3 z" />
  </g>
</svg>
